<svg width="32" height="32" viewBox="0 0 32 32" fill="none" xmlns="http://www.w3.org/2000/svg">
<path d="M21.2011 21.2001L12.8006 12.7997C12.2484 12.2475 11.3531 12.2475 10.8009 12.7997L10.2013 13.3993C9.64913 13.9515 9.64909 14.8468 10.2013 15.399L18.6017 23.7994C19.1539 24.3516 20.0493 24.3516 20.6015 23.7994L21.201 23.1998C21.7532 22.6476 21.7533 21.7523 21.2011 21.2001Z" fill="#34485C"/>
<path d="M26.2499 13.0825L20.9169 7.74951L14.2503 14.4161L19.5833 19.7491L26.2499 13.0825Z" fill="#2B4255"/>
<path d="M28.6992 10.5002L23.4991 5.30014C22.7813 4.58235 21.6177 4.58229 20.8999 5.30007C20.1821 6.01786 20.182 7.1817 20.8998 7.89948L26.0998 13.0995C26.8176 13.8173 27.9815 13.8172 28.6993 13.0995C29.417 12.3817 29.417 11.218 28.6992 10.5002Z" fill="#34485C"/>
<path d="M13.1 18.3L15.7 20.9001L9.19983 27.4001H6.59985H4L13.1 18.3Z" fill="#CAD1D8" fill-opacity="0.98"/>
</svg>
